<svg width="100" height="100" viewBox="0 0 100 100" fill="none" xmlns="http://www.w3.org/2000/svg">
<path d="M75.3235 24.7689C74.4917 22.366 73.5675 20.0555 72.4584 17.8373C66.9131 6.56192 58.6876 0 50 0C33.8262 0 20.7024 22.4584 20.7024 50C20.7024 57.7634 21.719 65.1571 23.6599 71.9039C11.0906 67.1904 2.86506 59.1497 2.86506 50C2.86506 41.9593 9.33457 34.4732 20.7024 29.39C21.4418 29.1128 21.719 28.1885 21.4418 27.5416C21.1645 26.8022 20.2403 26.525 19.5933 26.8022C7.11645 32.3475 0 40.7579 0 50C0 60.7209 9.98152 70.1479 24.7689 75.2311C25.9704 78.7431 27.4492 82.0702 29.1128 85.0277C34.658 94.6396 42.0518 100 50 100C59.2421 100 67.7449 92.8836 73.2902 80.3142C73.5675 79.5749 73.2902 78.7431 72.5508 78.4658C71.8115 78.1885 70.9797 78.4658 70.7024 79.2052C65.6192 90.573 58.0407 97.1349 50 97.1349C43.0684 97.1349 36.5065 92.329 31.5157 83.6414C30.2218 81.4233 29.1128 78.9279 28.0961 76.3401C34.7505 78.1885 42.1442 79.2976 50 79.2976C77.5416 79.2976 100 66.1738 100 50C100 39.2791 90.0185 29.8521 75.3235 24.7689ZM50 76.4325C41.6821 76.4325 33.8262 75.2311 26.9871 73.1054C24.7689 66.1738 23.5675 58.2255 23.5675 50.0924C23.5675 24.122 35.3974 2.95749 50 2.95749C57.5786 2.95749 64.8799 8.87246 69.8706 19.2237C70.61 20.7024 71.1645 22.1811 71.8115 23.7523C65.2495 21.9039 57.7634 20.7948 50 20.7948C43.1608 20.7948 36.5065 21.6266 30.3142 23.1054C29.5749 23.2902 29.1128 24.0296 29.2976 24.8614C29.4824 25.6007 30.2218 26.0628 31.0536 25.878C37.061 24.3993 43.4381 23.6599 50.0924 23.6599C58.4104 23.6599 66.2662 24.8614 73.1054 26.9871C73.7523 28.9279 74.3068 31.0536 74.7689 33.1793C75.9704 38.5397 76.525 44.2699 76.525 50.0924C76.525 56.6543 75.7856 62.939 74.3068 68.9464C74.122 69.6858 74.5841 70.5176 75.3235 70.7024C76.0628 70.8872 76.8946 70.4251 77.0795 69.6858C78.5582 63.4935 79.39 56.9316 79.39 50.1848C79.39 44.1774 78.7431 38.2625 77.5416 32.7172C77.1719 31.2384 76.8022 29.7597 76.4325 28.281C88.9094 32.8096 97.1349 40.8503 97.1349 50C97.1349 64.6026 75.9704 76.4325 50 76.4325Z" fill="#000A3A"/>
<path d="M35.6747 52.4954C37.6155 51.756 38.5398 50.4621 38.5398 48.8909C38.5398 46.7652 36.6913 45.0092 33.3642 45.0092C31.3309 45.0092 29.4825 45.5637 28.5582 46.2107L29.2976 48.7985C29.9446 48.4288 31.2385 47.8743 32.5324 47.8743C34.0111 47.8743 34.8429 48.5212 34.8429 49.4454C34.8429 50.7393 33.2717 51.2015 32.0703 51.2015H30.6839V53.7893H32.1627C33.7338 53.7893 35.305 54.4362 35.305 56.0074C35.305 57.2088 34.3808 58.0406 32.4399 58.0406C30.9612 58.0406 29.4825 57.3937 28.8355 57.1164L28.0961 59.7966C29.0203 60.3512 30.6839 60.9057 32.7172 60.9057C36.5989 60.9057 39.0019 58.8724 39.0019 56.1922C39.0943 54.2514 37.5231 52.865 35.6747 52.4954Z" fill="#000A3A"/>
<path d="M48.244 50.3697C46.7653 50.3697 45.7486 50.8318 45.0093 51.5711H44.9168C45.2865 49.7227 46.7653 48.1515 50 47.8743C50.5545 47.7819 51.0167 47.7819 51.3863 47.7819V45.0092C51.0167 45.0092 50.647 45.0092 49.9076 45.0092C47.5046 45.1016 45.4714 45.9334 43.9002 47.3198C42.2366 48.8909 41.1276 51.2939 41.1276 54.1589C41.1276 57.8558 43.1608 60.9057 47.2274 60.9057C50.5545 60.9057 52.9575 58.4103 52.9575 55.3604C52.9575 52.2181 50.8318 50.3697 48.244 50.3697ZM47.2274 58.3179C45.5638 58.3179 44.8244 56.8392 44.732 55.1756C44.732 54.7135 44.8244 54.4362 44.9168 54.2514C45.2865 53.512 46.1183 52.865 47.0425 52.865C48.6137 52.865 49.3531 54.0665 49.3531 55.5453C49.3531 57.2088 48.5213 58.3179 47.2274 58.3179Z" fill="#000A3A"/>
<path d="M60.2588 45.0092C56.2847 45.0092 54.3438 48.5212 54.3438 53.0499C54.3438 57.3937 56.0998 60.9981 60.0739 60.9981C64.0481 60.9981 65.9889 57.7634 65.9889 52.9575C65.9889 48.7061 64.4177 45.0092 60.2588 45.0092ZM60.2588 58.2255C58.8725 58.2255 58.0407 56.5619 58.0407 52.9575C58.0407 49.353 58.9649 47.6894 60.2588 47.6894C61.7375 47.6894 62.4769 49.5379 62.4769 52.9575C62.3845 56.4695 61.6451 58.2255 60.2588 58.2255Z" fill="#000A3A"/>
<path d="M68.854 35.5823C65.9889 35.5823 63.5859 37.8928 63.5859 40.8503C63.5859 43.7154 65.8965 46.1183 68.854 46.1183C71.719 46.1183 74.122 43.8078 74.122 40.8503C74.122 37.8928 71.8114 35.5823 68.854 35.5823ZM68.854 43.1608C67.5601 43.1608 66.451 42.0518 66.451 40.7579C66.451 39.464 67.5601 38.3549 68.854 38.3549C70.1479 38.3549 71.2569 39.464 71.2569 40.7579C71.2569 42.1442 70.2403 43.1608 68.854 43.1608Z" fill="#000A3A"/>
</svg>
