<svg width="433" height="433" viewBox="0 0 433 433" fill="none" xmlns="http://www.w3.org/2000/svg">
<g clip-path="url(#clip0)">
<path d="M326 107.2C322.4 96.8 318.4 86.8 313.6 77.2C289.6 28.4 254 0 216.4 0C146.4 0 89.6 97.2 89.6 216.4C89.6 250 94 282 102.4 311.2C48 290.8 12.4 256 12.4 216.4C12.4 181.6 40.4 149.2 89.6 127.2C92.8 126 94 122 92.8 119.2C91.6 116 87.6 114.8 84.8 116C30.8 140 0 176.4 0 216.4C0 262.8 43.2 303.6 107.2 325.6C112.4 340.8 118.8 355.2 126 368C150 409.6 182 432.8 216.4 432.8C256.4 432.8 293.2 402 317.2 347.6C318.4 344.4 317.2 340.8 314 339.6C310.8 338.4 307.2 339.6 306 342.8C284 392 251.2 420.4 216.4 420.4C186.4 420.4 158 399.6 136.4 362C130.8 352.4 126 341.6 121.6 330.4C150.4 338.4 182.4 343.2 216.4 343.2C335.6 343.2 432.8 286.4 432.8 216.4C432.8 170 389.6 129.2 326 107.2ZM216.4 330.8C180.4 330.8 146.4 325.6 116.8 316.4C107.2 286.4 102 252 102 216.8C102 104.4 153.2 12.8 216.4 12.8C249.2 12.8 280.8 38.4 302.4 83.2C305.6 89.6 308 96 310.8 102.8C282.4 94.8 250 90 216.4 90C186.8 90 158 93.6 131.2 100C128 100.8 126 104 126.8 107.6C127.6 110.8 130.8 112.8 134.4 112C160.4 105.6 188 102.4 216.8 102.4C252.8 102.4 286.8 107.6 316.4 116.8C319.2 125.2 321.6 134.4 323.6 143.6C328.8 166.8 331.2 191.6 331.2 216.8C331.2 245.2 328 272.4 321.6 298.4C320.8 301.6 322.8 305.2 326 306C329.2 306.8 332.8 304.8 333.6 301.6C340 274.8 343.6 246.4 343.6 217.2C343.6 191.2 340.8 165.6 335.6 141.6C334 135.2 332.4 128.8 330.8 122.4C384.8 142 420.4 176.8 420.4 216.4C420.4 279.6 328.8 330.8 216.4 330.8Z" fill="#000A3A"/>
<path d="M154.4 227.2C162.8 224 166.8 218.4 166.8 211.6C166.8 202.4 158.8 194.8 144.4 194.8C135.6 194.8 127.6 197.2 123.6 200L126.8 211.2C129.6 209.6 135.2 207.2 140.8 207.2C147.2 207.2 150.8 210 150.8 214C150.8 219.6 144 221.6 138.8 221.6H132.8V232.8H139.2C146 232.8 152.8 235.6 152.8 242.4C152.8 247.6 148.8 251.2 140.4 251.2C134 251.2 127.6 248.4 124.8 247.2L121.6 258.8C125.6 261.2 132.8 263.6 141.6 263.6C158.4 263.6 168.8 254.8 168.8 243.2C169.2 234.8 162.4 228.8 154.4 227.2Z" fill="#000A3A"/>
<path d="M208.8 218C202.4 218 198 220 194.8 223.2H194.4C196 215.2 202.4 208.4 216.4 207.2C218.8 206.8 220.8 206.8 222.4 206.8V194.8C220.8 194.8 219.2 194.8 216 194.8C205.6 195.2 196.8 198.8 190 204.8C182.8 211.6 178 222 178 234.4C178 250.4 186.8 263.6 204.4 263.6C218.8 263.6 229.2 252.8 229.2 239.6C229.2 226 220 218 208.8 218ZM204.4 252.4C197.2 252.4 194 246 193.6 238.8C193.6 236.8 194 235.6 194.4 234.8C196 231.6 199.6 228.8 203.6 228.8C210.4 228.8 213.6 234 213.6 240.4C213.6 247.6 210 252.4 204.4 252.4Z" fill="#000A3A"/>
<path d="M260.8 194.8C243.6 194.8 235.2 210 235.2 229.6C235.2 248.4 242.8 264 260 264C277.2 264 285.6 250 285.6 229.2C285.6 210.8 278.8 194.8 260.8 194.8ZM260.8 252C254.8 252 251.2 244.8 251.2 229.2C251.2 213.6 255.2 206.4 260.8 206.4C267.2 206.4 270.4 214.4 270.4 229.2C270 244.4 266.8 252 260.8 252Z" fill="#000A3A"/>
<path d="M298 154C285.6 154 275.2 164 275.2 176.8C275.2 189.2 285.2 199.6 298 199.6C310.4 199.6 320.8 189.6 320.8 176.8C320.8 164 310.8 154 298 154ZM298 186.8C292.4 186.8 287.6 182 287.6 176.4C287.6 170.8 292.4 166 298 166C303.6 166 308.4 170.8 308.4 176.4C308.4 182.4 304 186.8 298 186.8Z" fill="#000A3A"/>
</g>
<defs>
<clipPath id="clip0">
<rect width="432.8" height="432.8" fill="white"/>
</clipPath>
</defs>
</svg>
