<svg width="218" height="50" viewBox="0 0 436 100" fill="none" xmlns="http://www.w3.org/2000/svg">
<path d="M75.3235 24.7689C74.4917 22.366 73.5675 20.0555 72.4584 17.8373C66.9131 6.56192 58.6876 0 50 0C33.8262 0 20.7024 22.4584 20.7024 50C20.7024 57.7634 21.719 65.1571 23.6599 71.9039C11.0906 67.1904 2.86506 59.1497 2.86506 50C2.86506 41.9593 9.33457 34.4732 20.7024 29.39C21.4418 29.1128 21.719 28.1885 21.4418 27.5416C21.1645 26.8022 20.2403 26.525 19.5933 26.8022C7.11645 32.3475 0 40.7579 0 50C0 60.7209 9.98152 70.1479 24.7689 75.2311C25.9704 78.7431 27.4492 82.0702 29.1128 85.0277C34.658 94.6396 42.0518 100 50 100C59.2421 100 67.7449 92.8836 73.2902 80.3142C73.5675 79.5749 73.2902 78.7431 72.5508 78.4658C71.8115 78.1885 70.9797 78.4658 70.7024 79.2052C65.6192 90.573 58.0407 97.1349 50 97.1349C43.0684 97.1349 36.5065 92.329 31.5157 83.6414C30.2218 81.4233 29.1128 78.9279 28.0961 76.3401C34.7505 78.1885 42.1442 79.2976 50 79.2976C77.5416 79.2976 100 66.1738 100 50C100 39.2791 90.0185 29.8521 75.3235 24.7689ZM50 76.4325C41.6821 76.4325 33.8262 75.2311 26.9871 73.1054C24.7689 66.1738 23.5675 58.2255 23.5675 50.0924C23.5675 24.122 35.3974 2.95749 50 2.95749C57.5786 2.95749 64.8799 8.87246 69.8706 19.2237C70.61 20.7024 71.1645 22.1811 71.8115 23.7523C65.2495 21.9039 57.7634 20.7948 50 20.7948C43.1608 20.7948 36.5065 21.6266 30.3142 23.1054C29.5749 23.2902 29.1128 24.0296 29.2976 24.8614C29.4824 25.6007 30.2218 26.0628 31.0536 25.878C37.061 24.3993 43.4381 23.6599 50.0924 23.6599C58.4104 23.6599 66.2662 24.8614 73.1054 26.9871C73.7523 28.9279 74.3068 31.0536 74.7689 33.1793C75.9704 38.5397 76.525 44.2699 76.525 50.0924C76.525 56.6543 75.7856 62.939 74.3068 68.9464C74.122 69.6858 74.5841 70.5176 75.3235 70.7024C76.0628 70.8872 76.8946 70.4251 77.0795 69.6858C78.5582 63.4935 79.39 56.9316 79.39 50.1848C79.39 44.1774 78.7431 38.2625 77.5416 32.7172C77.1719 31.2384 76.8022 29.7597 76.4325 28.281C88.9094 32.8096 97.1349 40.8503 97.1349 50C97.1349 64.6026 75.9704 76.4325 50 76.4325Z" fill="#000A3A"/>
<path d="M75.3235 24.7689C74.4917 22.366 73.5675 20.0555 72.4584 17.8373C66.9131 6.56192 58.6876 0 50 0C33.8262 0 20.7024 22.4584 20.7024 50C20.7024 57.7634 21.719 65.1571 23.6599 71.9039C11.0906 67.1904 2.86506 59.1497 2.86506 50C2.86506 41.9593 9.33457 34.4732 20.7024 29.39C21.4418 29.1128 21.719 28.1885 21.4418 27.5416C21.1645 26.8022 20.2403 26.525 19.5933 26.8022C7.11645 32.3475 0 40.7579 0 50C0 60.7209 9.98152 70.1479 24.7689 75.2311C25.9704 78.7431 27.4492 82.0702 29.1128 85.0277C34.658 94.6396 42.0518 100 50 100C59.2421 100 67.7449 92.8836 73.2902 80.3142C73.5675 79.5749 73.2902 78.7431 72.5508 78.4658C71.8115 78.1885 70.9797 78.4658 70.7024 79.2052C65.6192 90.573 58.0407 97.1349 50 97.1349C43.0684 97.1349 36.5065 92.329 31.5157 83.6414C30.2218 81.4233 29.1128 78.9279 28.0961 76.3401C34.7505 78.1885 42.1442 79.2976 50 79.2976C77.5416 79.2976 100 66.1738 100 50C100 39.2791 90.0185 29.8521 75.3235 24.7689ZM50 76.4325C41.6821 76.4325 33.8262 75.2311 26.9871 73.1054C24.7689 66.1738 23.5675 58.2255 23.5675 50.0924C23.5675 24.122 35.3974 2.95749 50 2.95749C57.5786 2.95749 64.8799 8.87246 69.8706 19.2237C70.61 20.7024 71.1645 22.1811 71.8115 23.7523C65.2495 21.9039 57.7634 20.7948 50 20.7948C43.1608 20.7948 36.5065 21.6266 30.3142 23.1054C29.5749 23.2902 29.1128 24.0296 29.2976 24.8614C29.4824 25.6007 30.2218 26.0628 31.0536 25.878C37.061 24.3993 43.4381 23.6599 50.0924 23.6599C58.4104 23.6599 66.2662 24.8614 73.1054 26.9871C73.7523 28.9279 74.3068 31.0536 74.7689 33.1793C75.9704 38.5397 76.525 44.2699 76.525 50.0924C76.525 56.6543 75.7856 62.939 74.3068 68.9464C74.122 69.6858 74.5841 70.5176 75.3235 70.7024C76.0628 70.8872 76.8946 70.4251 77.0795 69.6858C78.5582 63.4935 79.39 56.9316 79.39 50.1848C79.39 44.1774 78.7431 38.2625 77.5416 32.7172C77.1719 31.2384 76.8022 29.7597 76.4325 28.281C88.9094 32.8096 97.1349 40.8503 97.1349 50C97.1349 64.6026 75.9704 76.4325 50 76.4325Z" fill="#000A3A"/>
<path d="M35.6747 52.4953C37.6155 51.7559 38.5397 50.462 38.5397 48.8909C38.5397 46.7652 36.6913 45.0092 33.3641 45.0092C31.3309 45.0092 29.4824 45.5637 28.5582 46.2106L29.2976 48.7984C29.9445 48.4288 31.2384 47.8742 32.5323 47.8742C34.0111 47.8742 34.8429 48.5212 34.8429 49.4454C34.8429 50.7393 33.2717 51.2014 32.0702 51.2014H30.6839V53.7892H32.1626C33.7338 53.7892 35.305 54.4361 35.305 56.0073C35.305 57.2088 34.3808 58.0406 32.4399 58.0406C30.9612 58.0406 29.4824 57.3936 28.8355 57.1164L28.0961 59.7966C29.0203 60.3511 30.6839 60.9057 32.7172 60.9057C36.5989 60.9057 39.0018 58.8724 39.0018 56.1922C39.0943 54.2513 37.5231 52.865 35.6747 52.4953Z" fill="#000A3A"/>
<path d="M48.244 50.3696C46.7652 50.3696 45.7486 50.8317 45.0092 51.5711H44.9168C45.2865 49.7227 46.7652 48.1515 50 47.8742C50.5545 47.7818 51.0166 47.7818 51.3863 47.7818V45.0092C51.0166 45.0092 50.6469 45.0092 49.9076 45.0092C47.5046 45.1016 45.4713 45.9334 43.9002 47.3197C42.2366 48.8909 41.1275 51.2938 41.1275 54.1589C41.1275 57.8557 43.1608 60.9057 47.2273 60.9057C50.5545 60.9057 52.9575 58.4103 52.9575 55.3604C52.9575 52.218 50.8318 50.3696 48.244 50.3696ZM47.2273 58.3179C45.5638 58.3179 44.8244 56.8391 44.732 55.1755C44.732 54.7134 44.8244 54.4362 44.9168 54.2513C45.2865 53.5119 46.1183 52.865 47.0425 52.865C48.6137 52.865 49.353 54.0665 49.353 55.5452C49.353 57.2088 48.5212 58.3179 47.2273 58.3179Z" fill="#000A3A"/>
<path d="M60.2588 45.0092C56.2847 45.0092 54.3438 48.5212 54.3438 53.0498C54.3438 57.3936 56.0998 60.9981 60.0739 60.9981C64.0481 60.9981 65.9889 57.7633 65.9889 52.9574C65.9889 48.706 64.4178 45.0092 60.2588 45.0092ZM60.2588 58.2254C58.8725 58.2254 58.0407 56.5618 58.0407 52.9574C58.0407 49.353 58.9649 47.6894 60.2588 47.6894C61.7375 47.6894 62.4769 49.5378 62.4769 52.9574C62.3845 56.4694 61.6451 58.2254 60.2588 58.2254Z" fill="#000A3A"/>
<path d="M68.854 35.5823C65.9889 35.5823 63.5859 37.8928 63.5859 40.8503C63.5859 43.7154 65.8965 46.1183 68.854 46.1183C71.719 46.1183 74.122 43.8078 74.122 40.8503C74.122 37.8928 71.8114 35.5823 68.854 35.5823ZM68.854 43.1608C67.5601 43.1608 66.451 42.0518 66.451 40.7579C66.451 39.464 67.5601 38.3549 68.854 38.3549C70.1479 38.3549 71.2569 39.464 71.2569 40.7579C71.2569 42.1442 70.2403 43.1608 68.854 43.1608Z" fill="#000A3A"/>
<path d="M137.234 51.448C137.234 48.632 137.661 46.2 138.514 44.152C139.367 42.0613 140.541 40.3333 142.034 38.968C143.57 37.6027 145.341 36.6 147.346 35.96C149.394 35.2773 151.591 34.936 153.938 34.936C154.791 34.936 155.623 35.0213 156.434 35.192C157.245 35.32 157.906 35.4907 158.418 35.704V25.336C158.845 25.208 159.527 25.08 160.466 24.952C161.405 24.7813 162.365 24.696 163.346 24.696C164.285 24.696 165.117 24.76 165.842 24.888C166.61 25.016 167.25 25.272 167.762 25.656C168.274 26.04 168.658 26.5733 168.914 27.256C169.17 27.896 169.298 28.7493 169.298 29.816V60.152C169.298 62.1573 168.359 63.7573 166.482 64.952C165.245 65.7627 163.645 66.4667 161.682 67.064C159.719 67.704 157.458 68.024 154.898 68.024C152.125 68.024 149.629 67.64 147.41 66.872C145.234 66.104 143.378 64.9947 141.842 63.544C140.349 62.0933 139.197 60.3653 138.386 58.36C137.618 56.312 137.234 54.008 137.234 51.448ZM155.41 43.448C153.106 43.448 151.335 44.1093 150.098 45.432C148.861 46.7547 148.242 48.76 148.242 51.448C148.242 54.0933 148.818 56.0987 149.97 57.464C151.122 58.7867 152.786 59.448 154.962 59.448C155.73 59.448 156.413 59.3413 157.01 59.128C157.65 58.872 158.141 58.5947 158.482 58.296V44.216C157.629 43.704 156.605 43.448 155.41 43.448ZM192.526 68.024C190.009 68.024 187.662 67.6827 185.486 67C183.353 66.2747 181.475 65.208 179.854 63.8C178.275 62.392 177.017 60.6213 176.078 58.488C175.182 56.3547 174.734 53.8587 174.734 51C174.734 48.184 175.182 45.7733 176.078 43.768C177.017 41.72 178.233 40.056 179.726 38.776C181.219 37.4533 182.926 36.4933 184.846 35.896C186.766 35.256 188.729 34.936 190.734 34.936C192.995 34.936 195.043 35.2773 196.878 35.96C198.755 36.6427 200.355 37.5813 201.678 38.776C203.043 39.9707 204.089 41.4 204.814 43.064C205.582 44.728 205.966 46.5413 205.966 48.504C205.966 49.9547 205.561 51.064 204.75 51.832C203.939 52.6 202.809 53.0907 201.358 53.304L185.55 55.672C186.019 57.08 186.979 58.1467 188.43 58.872C189.881 59.5547 191.545 59.896 193.422 59.896C195.171 59.896 196.814 59.6827 198.35 59.256C199.929 58.7867 201.209 58.2533 202.19 57.656C202.873 58.0827 203.449 58.68 203.918 59.448C204.387 60.216 204.622 61.0267 204.622 61.88C204.622 63.8 203.726 65.2293 201.934 66.168C200.569 66.8933 199.033 67.384 197.326 67.64C195.619 67.896 194.019 68.024 192.526 68.024ZM190.734 42.872C189.71 42.872 188.814 43.0427 188.046 43.384C187.321 43.7253 186.723 44.1733 186.254 44.728C185.785 45.24 185.422 45.8373 185.166 46.52C184.953 47.16 184.825 47.8213 184.782 48.504L195.726 46.712C195.598 45.8587 195.129 45.0053 194.318 44.152C193.507 43.2987 192.313 42.872 190.734 42.872ZM226.371 34.936C228.803 34.936 231 35.256 232.963 35.896C234.968 36.4933 236.654 37.2827 238.019 38.264C238.872 38.8613 239.534 39.5227 240.003 40.248C240.515 40.9733 240.771 41.912 240.771 43.064V65.464C240.771 67.7253 240.344 69.6667 239.491 71.288C238.638 72.952 237.464 74.3173 235.971 75.384C234.52 76.4933 232.792 77.304 230.787 77.816C228.824 78.328 226.712 78.584 224.451 78.584C220.568 78.584 217.518 78.0507 215.299 76.984C213.08 75.96 211.971 74.2747 211.971 71.928C211.971 70.9467 212.163 70.072 212.547 69.304C212.974 68.5787 213.443 68.024 213.955 67.64C215.192 68.3227 216.579 68.8987 218.115 69.368C219.694 69.8373 221.315 70.072 222.979 70.072C225.283 70.072 227.118 69.688 228.483 68.92C229.848 68.152 230.531 66.9147 230.531 65.208V64.184C228.782 64.952 226.648 65.336 224.131 65.336C222.211 65.336 220.376 65.0587 218.627 64.504C216.92 63.9067 215.406 63.0107 214.083 61.816C212.803 60.5787 211.758 59 210.947 57.08C210.179 55.16 209.795 52.8773 209.795 50.232C209.795 47.6293 210.2 45.368 211.011 43.448C211.864 41.528 213.016 39.9493 214.467 38.712C215.96 37.432 217.71 36.4933 219.715 35.896C221.763 35.256 223.982 34.936 226.371 34.936ZM230.339 44.216C230.04 44.0453 229.592 43.8747 228.995 43.704C228.44 43.5333 227.736 43.448 226.883 43.448C224.792 43.448 223.214 44.0453 222.147 45.24C221.123 46.392 220.611 48.056 220.611 50.232C220.611 52.7067 221.123 54.4987 222.147 55.608C223.214 56.6747 224.558 57.208 226.179 57.208C227.928 57.208 229.315 56.8027 230.339 55.992V44.216ZM258.396 66.936C257.969 67.064 257.286 67.192 256.348 67.32C255.452 67.448 254.513 67.512 253.532 67.512C252.593 67.512 251.74 67.448 250.972 67.32C250.246 67.192 249.628 66.936 249.116 66.552C248.604 66.168 248.198 65.656 247.9 65.016C247.644 64.3333 247.516 63.4587 247.516 62.392V43.192C247.516 42.2107 247.686 41.3787 248.028 40.696C248.412 39.9707 248.945 39.3307 249.628 38.776C250.31 38.2213 251.142 37.7307 252.124 37.304C253.148 36.8347 254.236 36.4293 255.388 36.088C256.54 35.7467 257.734 35.4907 258.972 35.32C260.209 35.1067 261.446 35 262.684 35C264.732 35 266.353 35.4053 267.548 36.216C268.742 36.984 269.34 38.264 269.34 40.056C269.34 40.6533 269.254 41.2507 269.084 41.848C268.913 42.4027 268.7 42.9147 268.444 43.384C267.548 43.384 266.63 43.4267 265.692 43.512C264.753 43.5973 263.836 43.7253 262.94 43.896C262.044 44.0667 261.19 44.2587 260.38 44.472C259.612 44.6427 258.95 44.856 258.396 45.112V66.936ZM289.089 68.024C286.571 68.024 284.225 67.6827 282.049 67C279.915 66.2747 278.038 65.208 276.417 63.8C274.838 62.392 273.579 60.6213 272.641 58.488C271.745 56.3547 271.297 53.8587 271.297 51C271.297 48.184 271.745 45.7733 272.641 43.768C273.579 41.72 274.795 40.056 276.289 38.776C277.782 37.4533 279.489 36.4933 281.409 35.896C283.329 35.256 285.291 34.936 287.297 34.936C289.558 34.936 291.606 35.2773 293.441 35.96C295.318 36.6427 296.918 37.5813 298.241 38.776C299.606 39.9707 300.651 41.4 301.377 43.064C302.145 44.728 302.529 46.5413 302.529 48.504C302.529 49.9547 302.123 51.064 301.312 51.832C300.502 52.6 299.371 53.0907 297.921 53.304L282.113 55.672C282.582 57.08 283.542 58.1467 284.993 58.872C286.443 59.5547 288.107 59.896 289.985 59.896C291.734 59.896 293.377 59.6827 294.913 59.256C296.491 58.7867 297.771 58.2533 298.753 57.656C299.435 58.0827 300.011 58.68 300.481 59.448C300.95 60.216 301.185 61.0267 301.185 61.88C301.185 63.8 300.289 65.2293 298.497 66.168C297.131 66.8933 295.595 67.384 293.889 67.64C292.182 67.896 290.582 68.024 289.089 68.024ZM287.297 42.872C286.273 42.872 285.377 43.0427 284.609 43.384C283.883 43.7253 283.286 44.1733 282.817 44.728C282.347 45.24 281.985 45.8373 281.729 46.52C281.515 47.16 281.387 47.8213 281.345 48.504L292.289 46.712C292.161 45.8587 291.691 45.0053 290.881 44.152C290.07 43.2987 288.875 42.872 287.297 42.872ZM324.214 68.024C321.696 68.024 319.35 67.6827 317.174 67C315.04 66.2747 313.163 65.208 311.542 63.8C309.963 62.392 308.704 60.6213 307.766 58.488C306.87 56.3547 306.422 53.8587 306.422 51C306.422 48.184 306.87 45.7733 307.766 43.768C308.704 41.72 309.92 40.056 311.414 38.776C312.907 37.4533 314.614 36.4933 316.534 35.896C318.454 35.256 320.416 34.936 322.422 34.936C324.683 34.936 326.731 35.2773 328.566 35.96C330.443 36.6427 332.043 37.5813 333.366 38.776C334.731 39.9707 335.776 41.4 336.502 43.064C337.27 44.728 337.654 46.5413 337.654 48.504C337.654 49.9547 337.248 51.064 336.438 51.832C335.627 52.6 334.496 53.0907 333.046 53.304L317.238 55.672C317.707 57.08 318.667 58.1467 320.118 58.872C321.568 59.5547 323.232 59.896 325.11 59.896C326.859 59.896 328.502 59.6827 330.038 59.256C331.616 58.7867 332.896 58.2533 333.878 57.656C334.56 58.0827 335.136 58.68 335.606 59.448C336.075 60.216 336.31 61.0267 336.31 61.88C336.31 63.8 335.414 65.2293 333.622 66.168C332.256 66.8933 330.72 67.384 329.014 67.64C327.307 67.896 325.707 68.024 324.214 68.024ZM322.422 42.872C321.398 42.872 320.502 43.0427 319.734 43.384C319.008 43.7253 318.411 44.1733 317.942 44.728C317.472 45.24 317.11 45.8373 316.854 46.52C316.64 47.16 316.512 47.8213 316.47 48.504L327.414 46.712C327.286 45.8587 326.816 45.0053 326.006 44.152C325.195 43.2987 324 42.872 322.422 42.872ZM343.979 67C343.296 66.4027 342.741 65.6987 342.315 64.888C341.931 64.0773 341.739 63.16 341.739 62.136C341.739 61.2827 341.931 60.4507 342.315 59.64C342.741 58.7867 343.253 57.9973 343.851 57.272L354.859 44.344H343.083C342.827 43.8747 342.571 43.2773 342.315 42.552C342.101 41.8267 341.995 41.0373 341.995 40.184C341.995 38.6907 342.315 37.624 342.955 36.984C343.637 36.3013 344.533 35.96 345.643 35.96H365.803C366.485 36.5573 367.019 37.2613 367.403 38.072C367.829 38.8827 368.043 39.8 368.043 40.824C368.043 41.6773 367.829 42.5307 367.403 43.384C367.019 44.1947 366.528 44.9627 365.931 45.688L355.179 58.616H367.723C367.979 59.0853 368.213 59.6827 368.427 60.408C368.683 61.1333 368.811 61.9227 368.811 62.776C368.811 64.2693 368.469 65.3573 367.787 66.04C367.147 66.68 366.272 67 365.163 67H343.979ZM374.791 67C374.108 66.4027 373.554 65.6987 373.127 64.888C372.743 64.0773 372.551 63.16 372.551 62.136C372.551 61.2827 372.743 60.4507 373.127 59.64C373.554 58.7867 374.066 57.9973 374.663 57.272L385.671 44.344H373.895C373.639 43.8747 373.383 43.2773 373.127 42.552C372.914 41.8267 372.807 41.0373 372.807 40.184C372.807 38.6907 373.127 37.624 373.767 36.984C374.45 36.3013 375.346 35.96 376.455 35.96H396.615C397.298 36.5573 397.831 37.2613 398.215 38.072C398.642 38.8827 398.855 39.8 398.855 40.824C398.855 41.6773 398.642 42.5307 398.215 43.384C397.831 44.1947 397.34 44.9627 396.743 45.688L385.991 58.616H398.535C398.791 59.0853 399.026 59.6827 399.239 60.408C399.495 61.1333 399.623 61.9227 399.623 62.776C399.623 64.2693 399.282 65.3573 398.599 66.04C397.959 66.68 397.084 67 395.975 67H374.791ZM408.942 59.064C408.473 57.9973 407.961 56.8027 407.406 55.48C406.894 54.1573 406.339 52.6427 405.742 50.936C405.187 49.2293 404.59 47.288 403.95 45.112C403.353 42.8933 402.713 40.3547 402.03 37.496C402.627 36.8987 403.417 36.3867 404.398 35.96C405.422 35.4907 406.531 35.256 407.726 35.256C409.219 35.256 410.457 35.576 411.438 36.216C412.419 36.8133 413.145 37.9653 413.614 39.672L418.67 57.272H418.926C419.438 55.8213 419.929 54.2427 420.398 52.536C420.91 50.8293 421.401 49.08 421.87 47.288C422.339 45.4533 422.766 43.64 423.15 41.848C423.577 40.0133 423.939 38.2213 424.238 36.472C425.774 35.6613 427.459 35.256 429.294 35.256C430.787 35.256 432.025 35.576 433.006 36.216C433.987 36.856 434.478 37.9653 434.478 39.544C434.478 40.696 434.329 42.04 434.03 43.576C433.731 45.0693 433.326 46.6693 432.814 48.376C432.345 50.0827 431.769 51.8533 431.086 53.688C430.446 55.48 429.763 57.2507 429.038 59C428.313 60.7493 427.566 62.4133 426.798 63.992C426.03 65.528 425.283 66.9147 424.558 68.152C423.363 70.2427 422.254 71.9493 421.23 73.272C420.206 74.5947 419.225 75.6187 418.286 76.344C417.347 77.112 416.409 77.624 415.47 77.88C414.531 78.1787 413.55 78.328 412.526 78.328C410.734 78.328 409.283 77.7947 408.174 76.728C407.065 75.6613 406.403 74.2747 406.19 72.568C407.555 71.5013 408.921 70.3067 410.286 68.984C411.651 67.704 412.889 66.3813 413.998 65.016C413.273 64.8027 412.483 64.312 411.63 63.544C410.819 62.7333 409.923 61.24 408.942 59.064Z" fill="#000A3A"/>
</svg>
